# xmcd
#
# Track frame offsets:
#	150
#	11207
#	21715
#	30802
#	39470
#	51032
#	62795
#	72177
#	85297
#	94445
#	104060
#	114815
#	122417
#	134697
#	143150
#	153385
#
# Disc length: 2166 seconds
#
# Revision: 1
# Processed by: cddbd v1.5.1PL0 Copyright (c) Steve Scherf et al.
# Submitted via: CDex 1.50Beta5
#
DISCID=de087410
DTITLE=ビーチ・ボ-イズ - ビーチ・ボーイズ
DYEAR=1900
DGENRE=Pop
TTITLE0=サーファー・ガール
TTITLE1=ファン・ファン・ファン
TTITLE2=恋はくせもの
TTITLE3=ノー・ゴー・ショーボート
TTITLE4=アミューズメント・パークス・U・S・A
TTITLE5=キス・ミー・ベイビー
TTITLE6=恋のパーキン・ロット
TTITLE7=太陽あびて
TTITLE8=ダンス・ダンス・ダンス
TTITLE9=オール・サマー・ロング
TTITLE10=浜辺の乙女
TTITLE11=リトル・デュース・クーペ
TTITLE12=ハッシャバイ
TTITLE13=シャット・ダウン
TTITLE14=グッド・トゥ・マイ・ベイビー
TTITLE15=ムーン・ドク(インスト)
EXTD=
EXTT0=
EXTT1=
EXTT2=
EXTT3=
EXTT4=
EXTT5=
EXTT6=
EXTT7=
EXTT8=
EXTT9=
EXTT10=
EXTT11=
EXTT12=
EXTT13=
EXTT14=
EXTT15=
PLAYORDER=
